<svg width="100" height="100" viewBox="0 0 100 100" fill="none" xmlns="http://www.w3.org/2000/svg">
<path fill-rule="evenodd" clip-rule="evenodd" d="M50 100C77.6142 100 100 77.6142 100 50C100 22.3858 77.6142 0 50 0C22.3858 0 0 22.3858 0 50C0 77.6142 22.3858 100 50 100Z" fill="#13A6FA"/>
<path d="M59 38H54V34C54 31.8125 55.75 30 58 30H58.5C59.3125 30 60 29.375 60 28.5V25.5C60 24.6875 59.3125 24 58.5 24H58C52.4375 24 48 28.5 48 34V49C48 50.6875 49.3125 52 51 52H59C60.625 52 62 50.6875 62 49V41C62 39.375 60.625 38 59 38ZM41 38H36V34C36 31.8125 37.75 30 40 30H40.5C41.3125 30 42 29.375 42 28.5V25.5C42 24.6875 41.3125 24 40.5 24H40C34.4375 24 30 28.5 30 34V49C30 50.6875 31.3125 52 33 52H41C42.625 52 44 50.6875 44 49V41C44 39.375 42.625 38 41 38Z" fill="white"/>
</svg>
