<svg width="42" height="40" viewBox="0 0 42 40" fill="none" xmlns="http://www.w3.org/2000/svg">
<path d="M37.4994 4.31054V31.299C37.4996 31.4769 37.4481 31.651 37.3511 31.8001C37.2541 31.9492 37.1158 32.0669 36.9531 32.1387L20.9994 39.1989L5.04576 32.1405C4.88248 32.0684 4.7438 31.9502 4.64675 31.8004C4.5497 31.6506 4.4985 31.4757 4.49943 31.2972V4.31054H0.832764V0.643875H41.1661V4.31054H37.4994ZM8.1661 4.31054V29.5097L20.9994 35.193L33.8328 29.5097V4.31054H8.1661ZM13.6661 11.6439H28.3328V15.3105H13.6661V11.6439ZM13.6661 18.9772H28.3328V22.6439H13.6661V18.9772Z" fill="#FF8548"/>
</svg>
