<svg width="153" height="179" viewBox="0 0 153 179" fill="none" xmlns="http://www.w3.org/2000/svg">
<path id="Pattern" fill-rule="evenodd" clip-rule="evenodd" d="M153 5.96704C153 8.45232 150.985 10.467 148.5 10.467C146.015 10.467 144 8.45232 144 5.96704C144 3.48176 146.015 1.46704 148.5 1.46704C150.985 1.46704 153 3.48176 153 5.96704ZM148.5 34.467C150.985 34.467 153 32.4523 153 29.967C153 27.4818 150.985 25.467 148.5 25.467C146.015 25.467 144 27.4818 144 29.967C144 32.4523 146.015 34.467 148.5 34.467ZM153 53.967C153 56.4523 150.985 58.467 148.5 58.467C146.015 58.467 144 56.4523 144 53.967C144 51.4818 146.015 49.467 148.5 49.467C150.985 49.467 153 51.4818 153 53.967ZM148.5 82.467C150.985 82.467 153 80.4523 153 77.967C153 75.4818 150.985 73.467 148.5 73.467C146.015 73.467 144 75.4818 144 77.967C144 80.4523 146.015 82.467 148.5 82.467ZM153 101.967C153 104.452 150.985 106.467 148.5 106.467C146.015 106.467 144 104.452 144 101.967C144 99.4818 146.015 97.467 148.5 97.467C150.985 97.467 153 99.4818 153 101.967ZM148.5 130.467C150.985 130.467 153 128.452 153 125.967C153 123.482 150.985 121.467 148.5 121.467C146.015 121.467 144 123.482 144 125.967C144 128.452 146.015 130.467 148.5 130.467ZM153 149.967C153 152.452 150.985 154.467 148.5 154.467C146.015 154.467 144 152.452 144 149.967C144 147.482 146.015 145.467 148.5 145.467C150.985 145.467 153 147.482 153 149.967ZM4.49982 178.467C6.9851 178.467 8.99982 176.452 8.99982 173.967C8.99982 171.482 6.9851 169.467 4.49982 169.467C2.01454 169.467 -0.000183105 171.482 -0.000183105 173.967C-0.000183105 176.452 2.01454 178.467 4.49982 178.467ZM32.9998 173.967C32.9998 176.452 30.9851 178.467 28.4998 178.467C26.0145 178.467 23.9998 176.452 23.9998 173.967C23.9998 171.482 26.0145 169.467 28.4998 169.467C30.9851 169.467 32.9998 171.482 32.9998 173.967ZM52.4998 178.467C54.9851 178.467 56.9998 176.452 56.9998 173.967C56.9998 171.482 54.9851 169.467 52.4998 169.467C50.0145 169.467 47.9998 171.482 47.9998 173.967C47.9998 176.452 50.0145 178.467 52.4998 178.467ZM80.9998 173.967C80.9998 176.452 78.9851 178.467 76.4998 178.467C74.0145 178.467 71.9998 176.452 71.9998 173.967C71.9998 171.482 74.0145 169.467 76.4998 169.467C78.9851 169.467 80.9998 171.482 80.9998 173.967ZM100.5 178.467C102.985 178.467 105 176.452 105 173.967C105 171.482 102.985 169.467 100.5 169.467C98.0145 169.467 95.9998 171.482 95.9998 173.967C95.9998 176.452 98.0145 178.467 100.5 178.467ZM129 173.967C129 176.452 126.985 178.467 124.5 178.467C122.015 178.467 120 176.452 120 173.967C120 171.482 122.015 169.467 124.5 169.467C126.985 169.467 129 171.482 129 173.967ZM153 173.967C153 176.452 150.985 178.467 148.5 178.467C146.015 178.467 144 176.452 144 173.967C144 171.482 146.015 169.467 148.5 169.467C150.985 169.467 153 171.482 153 173.967ZM124.5 154.467C126.985 154.467 129 152.452 129 149.967C129 147.482 126.985 145.467 124.5 145.467C122.015 145.467 120 147.482 120 149.967C120 152.452 122.015 154.467 124.5 154.467ZM105 149.967C105 152.452 102.985 154.467 100.5 154.467C98.0145 154.467 95.9998 152.452 95.9998 149.967C95.9998 147.482 98.0145 145.467 100.5 145.467C102.985 145.467 105 147.482 105 149.967ZM76.4998 154.467C78.9851 154.467 80.9998 152.452 80.9998 149.967C80.9998 147.482 78.9851 145.467 76.4998 145.467C74.0145 145.467 71.9998 147.482 71.9998 149.967C71.9998 152.452 74.0145 154.467 76.4998 154.467ZM56.9998 149.967C56.9998 152.452 54.9851 154.467 52.4998 154.467C50.0145 154.467 47.9998 152.452 47.9998 149.967C47.9998 147.482 50.0145 145.467 52.4998 145.467C54.9851 145.467 56.9998 147.482 56.9998 149.967ZM28.4998 154.467C30.9851 154.467 32.9998 152.452 32.9998 149.967C32.9998 147.482 30.9851 145.467 28.4998 145.467C26.0145 145.467 23.9998 147.482 23.9998 149.967C23.9998 152.452 26.0145 154.467 28.4998 154.467ZM8.99982 149.967C8.99982 152.452 6.9851 154.467 4.49982 154.467C2.01454 154.467 -0.000183105 152.452 -0.000183105 149.967C-0.000183105 147.482 2.01454 145.467 4.49982 145.467C6.9851 145.467 8.99982 147.482 8.99982 149.967ZM129 125.967C129 128.452 126.985 130.467 124.5 130.467C122.015 130.467 120 128.452 120 125.967C120 123.482 122.015 121.467 124.5 121.467C126.985 121.467 129 123.482 129 125.967ZM100.5 130.467C102.985 130.467 105 128.452 105 125.967C105 123.482 102.985 121.467 100.5 121.467C98.0145 121.467 95.9998 123.482 95.9998 125.967C95.9998 128.452 98.0145 130.467 100.5 130.467ZM80.9998 125.967C80.9998 128.452 78.9851 130.467 76.4998 130.467C74.0145 130.467 71.9998 128.452 71.9998 125.967C71.9998 123.482 74.0145 121.467 76.4998 121.467C78.9851 121.467 80.9998 123.482 80.9998 125.967ZM52.4998 130.467C54.9851 130.467 56.9998 128.452 56.9998 125.967C56.9998 123.482 54.9851 121.467 52.4998 121.467C50.0145 121.467 47.9998 123.482 47.9998 125.967C47.9998 128.452 50.0145 130.467 52.4998 130.467ZM32.9998 125.967C32.9998 128.452 30.9851 130.467 28.4998 130.467C26.0145 130.467 23.9998 128.452 23.9998 125.967C23.9998 123.482 26.0145 121.467 28.4998 121.467C30.9851 121.467 32.9998 123.482 32.9998 125.967ZM4.49982 130.467C6.9851 130.467 8.99982 128.452 8.99982 125.967C8.99982 123.482 6.9851 121.467 4.49982 121.467C2.01454 121.467 -0.000183105 123.482 -0.000183105 125.967C-0.000183105 128.452 2.01454 130.467 4.49982 130.467ZM124.5 106.467C126.985 106.467 129 104.452 129 101.967C129 99.4818 126.985 97.467 124.5 97.467C122.015 97.467 120 99.4818 120 101.967C120 104.452 122.015 106.467 124.5 106.467ZM105 101.967C105 104.452 102.985 106.467 100.5 106.467C98.0145 106.467 95.9998 104.452 95.9998 101.967C95.9998 99.4818 98.0145 97.467 100.5 97.467C102.985 97.467 105 99.4818 105 101.967ZM129 77.967C129 80.4523 126.985 82.467 124.5 82.467C122.015 82.467 120 80.4523 120 77.967C120 75.4818 122.015 73.467 124.5 73.467C126.985 73.467 129 75.4818 129 77.967ZM100.5 82.467C102.985 82.467 105 80.4523 105 77.967C105 75.4818 102.985 73.467 100.5 73.467C98.0145 73.467 95.9998 75.4818 95.9998 77.967C95.9998 80.4523 98.0145 82.467 100.5 82.467ZM124.5 58.467C126.985 58.467 129 56.4523 129 53.967C129 51.4818 126.985 49.467 124.5 49.467C122.015 49.467 120 51.4818 120 53.967C120 56.4523 122.015 58.467 124.5 58.467ZM105 53.967C105 56.4523 102.985 58.467 100.5 58.467C98.0145 58.467 95.9998 56.4523 95.9998 53.967C95.9998 51.4818 98.0145 49.467 100.5 49.467C102.985 49.467 105 51.4818 105 53.967ZM129 29.967C129 32.4523 126.985 34.467 124.5 34.467C122.015 34.467 120 32.4523 120 29.967C120 27.4818 122.015 25.467 124.5 25.467C126.985 25.467 129 27.4818 129 29.967ZM100.5 34.467C102.985 34.467 105 32.4523 105 29.967C105 27.4818 102.985 25.467 100.5 25.467C98.0145 25.467 95.9998 27.4818 95.9998 29.967C95.9998 32.4523 98.0145 34.467 100.5 34.467ZM124.5 10.467C126.985 10.467 129 8.45232 129 5.96704C129 3.48176 126.985 1.46704 124.5 1.46704C122.015 1.46704 120 3.48176 120 5.96704C120 8.45232 122.015 10.467 124.5 10.467ZM105 5.96704C105 8.45232 102.985 10.467 100.5 10.467C98.0145 10.467 95.9998 8.45232 95.9998 5.96704C95.9998 3.48176 98.0145 1.46704 100.5 1.46704C102.985 1.46704 105 3.48176 105 5.96704Z" fill="#FAAD13" fill-opacity="0.21"/>
</svg>
