<svg width="153" height="177" viewBox="0 0 153 177" fill="none" xmlns="http://www.w3.org/2000/svg">
<path id="Pattern" fill-rule="evenodd" clip-rule="evenodd" d="M153 4.5C153 6.98528 150.985 9 148.5 9C146.015 9 144 6.98528 144 4.5C144 2.01472 146.015 0 148.5 0C150.985 0 153 2.01472 153 4.5ZM148.5 33C150.985 33 153 30.9853 153 28.5C153 26.0147 150.985 24 148.5 24C146.015 24 144 26.0147 144 28.5C144 30.9853 146.015 33 148.5 33ZM153 52.5C153 54.9853 150.985 57 148.5 57C146.015 57 144 54.9853 144 52.5C144 50.0147 146.015 48 148.5 48C150.985 48 153 50.0147 153 52.5ZM148.5 81C150.985 81 153 78.9853 153 76.5C153 74.0147 150.985 72 148.5 72C146.015 72 144 74.0147 144 76.5C144 78.9853 146.015 81 148.5 81ZM153 100.5C153 102.985 150.985 105 148.5 105C146.015 105 144 102.985 144 100.5C144 98.0147 146.015 96 148.5 96C150.985 96 153 98.0147 153 100.5ZM148.5 129C150.985 129 153 126.985 153 124.5C153 122.015 150.985 120 148.5 120C146.015 120 144 122.015 144 124.5C144 126.985 146.015 129 148.5 129ZM153 148.5C153 150.985 150.985 153 148.5 153C146.015 153 144 150.985 144 148.5C144 146.015 146.015 144 148.5 144C150.985 144 153 146.015 153 148.5ZM4.5 177C6.98528 177 9 174.985 9 172.5C9 170.015 6.98528 168 4.5 168C2.01472 168 0 170.015 0 172.5C0 174.985 2.01472 177 4.5 177ZM33 172.5C33 174.985 30.9853 177 28.5 177C26.0147 177 24 174.985 24 172.5C24 170.015 26.0147 168 28.5 168C30.9853 168 33 170.015 33 172.5ZM52.5 177C54.9853 177 57 174.985 57 172.5C57 170.015 54.9853 168 52.5 168C50.0147 168 48 170.015 48 172.5C48 174.985 50.0147 177 52.5 177ZM81 172.5C81 174.985 78.9853 177 76.5 177C74.0147 177 72 174.985 72 172.5C72 170.015 74.0147 168 76.5 168C78.9853 168 81 170.015 81 172.5ZM100.5 177C102.985 177 105 174.985 105 172.5C105 170.015 102.985 168 100.5 168C98.0147 168 96 170.015 96 172.5C96 174.985 98.0147 177 100.5 177ZM129 172.5C129 174.985 126.985 177 124.5 177C122.015 177 120 174.985 120 172.5C120 170.015 122.015 168 124.5 168C126.985 168 129 170.015 129 172.5ZM153 172.5C153 174.985 150.985 177 148.5 177C146.015 177 144 174.985 144 172.5C144 170.015 146.015 168 148.5 168C150.985 168 153 170.015 153 172.5ZM124.5 153C126.985 153 129 150.985 129 148.5C129 146.015 126.985 144 124.5 144C122.015 144 120 146.015 120 148.5C120 150.985 122.015 153 124.5 153ZM105 148.5C105 150.985 102.985 153 100.5 153C98.0147 153 96 150.985 96 148.5C96 146.015 98.0147 144 100.5 144C102.985 144 105 146.015 105 148.5ZM76.5 153C78.9853 153 81 150.985 81 148.5C81 146.015 78.9853 144 76.5 144C74.0147 144 72 146.015 72 148.5C72 150.985 74.0147 153 76.5 153ZM57 148.5C57 150.985 54.9853 153 52.5 153C50.0147 153 48 150.985 48 148.5C48 146.015 50.0147 144 52.5 144C54.9853 144 57 146.015 57 148.5ZM28.5 153C30.9853 153 33 150.985 33 148.5C33 146.015 30.9853 144 28.5 144C26.0147 144 24 146.015 24 148.5C24 150.985 26.0147 153 28.5 153ZM9 148.5C9 150.985 6.98528 153 4.5 153C2.01472 153 0 150.985 0 148.5C0 146.015 2.01472 144 4.5 144C6.98528 144 9 146.015 9 148.5ZM129 124.5C129 126.985 126.985 129 124.5 129C122.015 129 120 126.985 120 124.5C120 122.015 122.015 120 124.5 120C126.985 120 129 122.015 129 124.5ZM100.5 129C102.985 129 105 126.985 105 124.5C105 122.015 102.985 120 100.5 120C98.0147 120 96 122.015 96 124.5C96 126.985 98.0147 129 100.5 129ZM81 124.5C81 126.985 78.9853 129 76.5 129C74.0147 129 72 126.985 72 124.5C72 122.015 74.0147 120 76.5 120C78.9853 120 81 122.015 81 124.5ZM52.5 129C54.9853 129 57 126.985 57 124.5C57 122.015 54.9853 120 52.5 120C50.0147 120 48 122.015 48 124.5C48 126.985 50.0147 129 52.5 129ZM33 124.5C33 126.985 30.9853 129 28.5 129C26.0147 129 24 126.985 24 124.5C24 122.015 26.0147 120 28.5 120C30.9853 120 33 122.015 33 124.5ZM4.5 129C6.98528 129 9 126.985 9 124.5C9 122.015 6.98528 120 4.5 120C2.01472 120 0 122.015 0 124.5C0 126.985 2.01472 129 4.5 129ZM124.5 105C126.985 105 129 102.985 129 100.5C129 98.0147 126.985 96 124.5 96C122.015 96 120 98.0147 120 100.5C120 102.985 122.015 105 124.5 105ZM105 100.5C105 102.985 102.985 105 100.5 105C98.0147 105 96 102.985 96 100.5C96 98.0147 98.0147 96 100.5 96C102.985 96 105 98.0147 105 100.5ZM76.5 105C78.9853 105 81 102.985 81 100.5C81 98.0147 78.9853 96 76.5 96C74.0147 96 72 98.0147 72 100.5C72 102.985 74.0147 105 76.5 105ZM57 100.5C57 102.985 54.9853 105 52.5 105C50.0147 105 48 102.985 48 100.5C48 98.0147 50.0147 96 52.5 96C54.9853 96 57 98.0147 57 100.5ZM28.5 105C30.9853 105 33 102.985 33 100.5C33 98.0147 30.9853 96 28.5 96C26.0147 96 24 98.0147 24 100.5C24 102.985 26.0147 105 28.5 105ZM9 100.5C9 102.985 6.98528 105 4.5 105C2.01472 105 0 102.985 0 100.5C0 98.0147 2.01472 96 4.5 96C6.98528 96 9 98.0147 9 100.5ZM129 76.5C129 78.9853 126.985 81 124.5 81C122.015 81 120 78.9853 120 76.5C120 74.0147 122.015 72 124.5 72C126.985 72 129 74.0147 129 76.5ZM100.5 81C102.985 81 105 78.9853 105 76.5C105 74.0147 102.985 72 100.5 72C98.0147 72 96 74.0147 96 76.5C96 78.9853 98.0147 81 100.5 81ZM81 76.5C81 78.9853 78.9853 81 76.5 81C74.0147 81 72 78.9853 72 76.5C72 74.0147 74.0147 72 76.5 72C78.9853 72 81 74.0147 81 76.5ZM52.5 81C54.9853 81 57 78.9853 57 76.5C57 74.0147 54.9853 72 52.5 72C50.0147 72 48 74.0147 48 76.5C48 78.9853 50.0147 81 52.5 81ZM33 76.5C33 78.9853 30.9853 81 28.5 81C26.0147 81 24 78.9853 24 76.5C24 74.0147 26.0147 72 28.5 72C30.9853 72 33 74.0147 33 76.5ZM4.5 81C6.98528 81 9 78.9853 9 76.5C9 74.0147 6.98528 72 4.5 72C2.01472 72 0 74.0147 0 76.5C0 78.9853 2.01472 81 4.5 81ZM124.5 57C126.985 57 129 54.9853 129 52.5C129 50.0147 126.985 48 124.5 48C122.015 48 120 50.0147 120 52.5C120 54.9853 122.015 57 124.5 57ZM105 52.5C105 54.9853 102.985 57 100.5 57C98.0147 57 96 54.9853 96 52.5C96 50.0147 98.0147 48 100.5 48C102.985 48 105 50.0147 105 52.5ZM76.5 57C78.9853 57 81 54.9853 81 52.5C81 50.0147 78.9853 48 76.5 48C74.0147 48 72 50.0147 72 52.5C72 54.9853 74.0147 57 76.5 57ZM57 52.5C57 54.9853 54.9853 57 52.5 57C50.0147 57 48 54.9853 48 52.5C48 50.0147 50.0147 48 52.5 48C54.9853 48 57 50.0147 57 52.5ZM28.5 57C30.9853 57 33 54.9853 33 52.5C33 50.0147 30.9853 48 28.5 48C26.0147 48 24 50.0147 24 52.5C24 54.9853 26.0147 57 28.5 57ZM9 52.5C9 54.9853 6.98528 57 4.5 57C2.01472 57 0 54.9853 0 52.5C0 50.0147 2.01472 48 4.5 48C6.98528 48 9 50.0147 9 52.5ZM129 28.5C129 30.9853 126.985 33 124.5 33C122.015 33 120 30.9853 120 28.5C120 26.0147 122.015 24 124.5 24C126.985 24 129 26.0147 129 28.5ZM100.5 33C102.985 33 105 30.9853 105 28.5C105 26.0147 102.985 24 100.5 24C98.0147 24 96 26.0147 96 28.5C96 30.9853 98.0147 33 100.5 33ZM81 28.5C81 30.9853 78.9853 33 76.5 33C74.0147 33 72 30.9853 72 28.5C72 26.0147 74.0147 24 76.5 24C78.9853 24 81 26.0147 81 28.5ZM52.5 33C54.9853 33 57 30.9853 57 28.5C57 26.0147 54.9853 24 52.5 24C50.0147 24 48 26.0147 48 28.5C48 30.9853 50.0147 33 52.5 33ZM33 28.5C33 30.9853 30.9853 33 28.5 33C26.0147 33 24 30.9853 24 28.5C24 26.0147 26.0147 24 28.5 24C30.9853 24 33 26.0147 33 28.5ZM4.5 33C6.98528 33 9 30.9853 9 28.5C9 26.0147 6.98528 24 4.5 24C2.01472 24 0 26.0147 0 28.5C0 30.9853 2.01472 33 4.5 33ZM124.5 9C126.985 9 129 6.98528 129 4.5C129 2.01472 126.985 0 124.5 0C122.015 0 120 2.01472 120 4.5C120 6.98528 122.015 9 124.5 9ZM105 4.5C105 6.98528 102.985 9 100.5 9C98.0147 9 96 6.98528 96 4.5C96 2.01472 98.0147 0 100.5 0C102.985 0 105 2.01472 105 4.5ZM76.5 9C78.9853 9 81 6.98528 81 4.5C81 2.01472 78.9853 0 76.5 0C74.0147 0 72 2.01472 72 4.5C72 6.98528 74.0147 9 76.5 9ZM57 4.5C57 6.98528 54.9853 9 52.5 9C50.0147 9 48 6.98528 48 4.5C48 2.01472 50.0147 0 52.5 0C54.9853 0 57 2.01472 57 4.5ZM28.5 9C30.9853 9 33 6.98528 33 4.5C33 2.01472 30.9853 0 28.5 0C26.0147 0 24 2.01472 24 4.5C24 6.98528 26.0147 9 28.5 9ZM9 4.5C9 6.98528 6.98528 9 4.5 9C2.01472 9 0 6.98528 0 4.5C0 2.01472 2.01472 0 4.5 0C6.98528 0 9 2.01472 9 4.5Z" fill="#FA9D13" fill-opacity="0.21"/>
</svg>
