<svg width="38" height="34" viewBox="0 0 38 34" fill="none" xmlns="http://www.w3.org/2000/svg">
<path d="M33.6666 7.81136V4.14469H4.33323V29.8114H33.6666V26.1447H18.9999C18.5137 26.1447 18.0474 25.9515 17.7035 25.6077C17.3597 25.2639 17.1666 24.7976 17.1666 24.3114V9.64469C17.1666 9.15846 17.3597 8.69215 17.7035 8.34833C18.0474 8.00452 18.5137 7.81136 18.9999 7.81136H33.6666ZM2.4999 0.478027H35.4999C35.9861 0.478027 36.4524 0.671181 36.7963 1.015C37.1401 1.35881 37.3332 1.82513 37.3332 2.31136V31.6447C37.3332 32.1309 37.1401 32.5972 36.7963 32.9411C36.4524 33.2849 35.9861 33.478 35.4999 33.478H2.4999C2.01367 33.478 1.54735 33.2849 1.20354 32.9411C0.859719 32.5972 0.666565 32.1309 0.666565 31.6447V2.31136C0.666565 1.82513 0.859719 1.35881 1.20354 1.015C1.54735 0.671181 2.01367 0.478027 2.4999 0.478027V0.478027ZM20.8332 11.478V22.478H33.6666V11.478H20.8332ZM24.4999 15.1447H29.9999V18.8114H24.4999V15.1447Z" fill="#738CFD"/>
</svg>
