<svg width="212" height="33" viewBox="0 0 212 33" fill="none" xmlns="http://www.w3.org/2000/svg">
<circle cx="28" cy="13" r="4" fill="#293FCC"/>
<circle cx="16" cy="13" r="4" fill="#293FCC"/>
<circle cx="4" cy="13" r="4" fill="#293FCC"/>
<path fill-rule="evenodd" clip-rule="evenodd" d="M75.4486 5.55C74.5486 5.55 73.8086 5.29 73.2286 4.77C72.6686 4.23 72.3886 3.57 72.3886 2.79C72.3886 1.99 72.6686 1.33 73.2286 0.81C73.8086 0.27 74.5486 0 75.4486 0C76.3286 0 77.0486 0.27 77.6086 0.81C78.1886 1.33 78.4786 1.99 78.4786 2.79C78.4786 3.57 78.1886 4.23 77.6086 4.77C77.0486 5.29 76.3286 5.55 75.4486 5.55ZM77.9986 7.29V24.03H72.8686V7.29H77.9986ZM41.3112 24L44.0112 27.63H50.2212L45.6012 22.08C46.9012 21.1 47.9112 19.87 48.6312 18.39C49.3712 16.89 49.7412 15.24 49.7412 13.44C49.7412 11.38 49.2612 9.53 48.3012 7.89C47.3612 6.25 46.0612 4.97 44.4012 4.05C42.7612 3.13 40.9512 2.67 38.9712 2.67C36.9912 2.67 35.1712 3.13 33.5112 4.05C32.5249 4.60329 31.6579 5.28679 30.9103 6.1005L34.7663 9.11247C34.807 9.06428 34.8486 9.01679 34.8912 8.97C35.9112 7.87 37.2712 7.32 38.9712 7.32C40.6512 7.32 41.9912 7.88 42.9912 9C44.0112 10.1 44.5212 11.58 44.5212 13.44C44.5212 15.28 44.0112 16.76 42.9912 17.88C41.9912 19 40.6512 19.56 38.9712 19.56C37.2712 19.56 35.9112 19.01 34.8912 17.91C34.5285 17.5038 34.2315 17.0489 34.0004 16.5453L30 19.6701C30.9242 21.002 32.0946 22.0653 33.5112 22.86C35.1712 23.78 36.9912 24.24 38.9712 24.24C39.7312 24.24 40.5112 24.16 41.3112 24ZM69.1837 24.03V7.29H64.0537V16.38C64.0537 17.5 63.7637 18.37 63.1837 18.99C62.6037 19.61 61.8137 19.92 60.8137 19.92C59.8337 19.92 59.0537 19.61 58.4737 18.99C57.8937 18.37 57.6037 17.5 57.6037 16.38V7.29H52.5037V17.07C52.5037 18.53 52.7737 19.8 53.3137 20.88C53.8537 21.96 54.6137 22.79 55.5937 23.37C56.5737 23.93 57.7037 24.21 58.9837 24.21C60.0637 24.21 61.0437 23.99 61.9237 23.55C62.8237 23.09 63.5337 22.49 64.0537 21.75V24.03H69.1837ZM81.7462 11.1C81.0462 12.4 80.6962 13.92 80.6962 15.66C80.6962 17.4 81.0462 18.92 81.7462 20.22C82.4662 21.52 83.4562 22.52 84.7162 23.22C85.9962 23.92 87.4562 24.27 89.0962 24.27C91.1762 24.27 92.9262 23.71 94.3462 22.59C95.7662 21.47 96.6962 19.93 97.1362 17.97H91.6762C91.2162 19.25 90.3262 19.89 89.0062 19.89C88.0662 19.89 87.3162 19.53 86.7562 18.81C86.1962 18.07 85.9162 17.02 85.9162 15.66C85.9162 14.3 86.1962 13.26 86.7562 12.54C87.3162 11.8 88.0662 11.43 89.0062 11.43C90.3262 11.43 91.2162 12.07 91.6762 13.35H97.1362C96.6962 11.35 95.7662 9.8 94.3462 8.7C92.9462 7.6 91.1962 7.05 89.0962 7.05C87.4562 7.05 85.9962 7.4 84.7162 8.1C83.4562 8.8 82.4662 9.8 81.7462 11.1ZM110.11 24.03L105.01 17.01V24.03H99.8803V1.83H105.01V14.1L110.08 7.29H116.41L109.45 15.69L116.47 24.03H110.11ZM121.905 23.49C123.125 23.99 124.505 24.24 126.045 24.24C127.625 24.24 128.995 23.95 130.155 23.37C131.315 22.79 132.195 22.01 132.795 21.03C133.415 20.05 133.725 18.96 133.725 17.76C133.725 16.5 133.415 15.47 132.795 14.67C132.175 13.87 131.435 13.26 130.575 12.84C129.735 12.42 128.635 11.98 127.275 11.52C125.915 11.08 124.915 10.67 124.275 10.29C123.635 9.91 123.315 9.38 123.315 8.7C123.315 8.08 123.505 7.61 123.885 7.29C124.265 6.95 124.765 6.78 125.385 6.78C126.105 6.78 126.695 6.98 127.155 7.38C127.615 7.76 127.865 8.29 127.905 8.97H133.455C133.355 6.99 132.595 5.45 131.175 4.35C129.755 3.23 127.885 2.67 125.565 2.67C123.285 2.67 121.435 3.23 120.015 4.35C118.595 5.45 117.885 6.98 117.885 8.94C117.885 10.26 118.195 11.33 118.815 12.15C119.435 12.97 120.175 13.59 121.035 14.01C121.895 14.43 123.005 14.85 124.365 15.27C125.305 15.55 126.025 15.8 126.525 16.02C127.045 16.24 127.475 16.52 127.815 16.86C128.175 17.2 128.355 17.63 128.355 18.15C128.355 18.77 128.135 19.26 127.695 19.62C127.255 19.96 126.655 20.13 125.895 20.13C125.155 20.13 124.555 19.93 124.095 19.53C123.635 19.11 123.365 18.51 123.285 17.73H117.825C117.865 19.11 118.245 20.29 118.965 21.27C119.705 22.25 120.685 22.99 121.905 23.49ZM142.012 9.66C142.512 8.88 143.202 8.25 144.082 7.77C144.962 7.29 145.992 7.05 147.172 7.05C148.552 7.05 149.802 7.4 150.922 8.1C152.042 8.8 152.922 9.8 153.562 11.1C154.222 12.4 154.552 13.91 154.552 15.63C154.552 17.35 154.222 18.87 153.562 20.19C152.922 21.49 152.042 22.5 150.922 23.22C149.802 23.92 148.552 24.27 147.172 24.27C146.012 24.27 144.982 24.03 144.082 23.55C143.202 23.07 142.512 22.45 142.012 21.69V32.01H136.882V7.29H142.012V9.66ZM149.332 15.63C149.332 14.35 148.972 13.35 148.252 12.63C147.552 11.89 146.682 11.52 145.642 11.52C144.622 11.52 143.752 11.89 143.032 12.63C142.332 13.37 141.982 14.38 141.982 15.66C141.982 16.94 142.332 17.95 143.032 18.69C143.752 19.43 144.622 19.8 145.642 19.8C146.662 19.8 147.532 19.43 148.252 18.69C148.972 17.93 149.332 16.91 149.332 15.63ZM157.184 11.1C156.544 12.4 156.224 13.91 156.224 15.63C156.224 17.35 156.544 18.87 157.184 20.19C157.844 21.49 158.734 22.5 159.854 23.22C160.974 23.92 162.214 24.27 163.574 24.27C164.754 24.27 165.784 24.03 166.664 23.55C167.564 23.07 168.264 22.44 168.764 21.66V24.03H173.894V7.29H168.764V9.66C168.284 8.88 167.594 8.25 166.694 7.77C165.814 7.29 164.784 7.05 163.604 7.05C162.224 7.05 160.974 7.4 159.854 8.1C158.734 8.8 157.844 9.8 157.184 11.1ZM167.684 12.63C168.404 13.37 168.764 14.38 168.764 15.66C168.764 16.94 168.404 17.95 167.684 18.69C166.984 19.43 166.124 19.8 165.104 19.8C164.084 19.8 163.214 19.43 162.494 18.69C161.794 17.93 161.444 16.91 161.444 15.63C161.444 14.35 161.794 13.35 162.494 12.63C163.214 11.89 164.084 11.52 165.104 11.52C166.124 11.52 166.984 11.89 167.684 12.63ZM176.585 15.66C176.585 13.92 176.935 12.4 177.635 11.1C178.355 9.8 179.345 8.8 180.605 8.1C181.885 7.4 183.345 7.05 184.985 7.05C187.085 7.05 188.835 7.6 190.235 8.7C191.655 9.8 192.585 11.35 193.025 13.35H187.565C187.105 12.07 186.215 11.43 184.895 11.43C183.955 11.43 183.205 11.8 182.645 12.54C182.085 13.26 181.805 14.3 181.805 15.66C181.805 17.02 182.085 18.07 182.645 18.81C183.205 19.53 183.955 19.89 184.895 19.89C186.215 19.89 187.105 19.25 187.565 17.97H193.025C192.585 19.93 191.655 21.47 190.235 22.59C188.815 23.71 187.065 24.27 184.985 24.27C183.345 24.27 181.885 23.92 180.605 23.22C179.345 22.52 178.355 21.52 177.635 20.22C176.935 18.92 176.585 17.4 176.585 15.66ZM211.459 16.89C211.519 16.37 211.549 15.87 211.549 15.39C211.549 13.71 211.189 12.24 210.469 10.98C209.769 9.72 208.789 8.75 207.529 8.07C206.269 7.39 204.829 7.05 203.209 7.05C201.549 7.05 200.079 7.4 198.799 8.1C197.519 8.8 196.519 9.8 195.799 11.1C195.099 12.4 194.749 13.92 194.749 15.66C194.749 17.4 195.109 18.92 195.829 20.22C196.549 21.52 197.549 22.52 198.829 23.22C200.109 23.92 201.569 24.27 203.209 24.27C204.569 24.27 205.799 24.02 206.899 23.52C207.999 23.02 208.909 22.33 209.629 21.45C210.369 20.57 210.879 19.58 211.159 18.48H205.699C205.199 19.56 204.309 20.1 203.029 20.1C202.169 20.1 201.439 19.83 200.839 19.29C200.259 18.73 199.929 17.93 199.849 16.89H211.459ZM205.399 11.94C205.999 12.46 206.299 13.16 206.299 14.04H199.879C200.019 13.12 200.379 12.41 200.959 11.91C201.559 11.41 202.289 11.16 203.149 11.16C204.049 11.16 204.799 11.42 205.399 11.94Z" fill="#090F4E"/>
</svg>
