<svg width="47" height="21" viewBox="0 0 47 21" fill="none" xmlns="http://www.w3.org/2000/svg">
<path d="M0.565635 15.5V0.75H3.20563V14.71L2.01563 13.32H8.79563V15.5H0.565635ZM16.1281 15.71C15.0081 15.71 14.0215 15.4767 13.1681 15.01C12.3148 14.5367 11.6448 13.8833 11.1581 13.05C10.6781 12.2167 10.4381 11.2633 10.4381 10.19C10.4381 9.11 10.6781 8.16 11.1581 7.34C11.6448 6.51333 12.3148 5.86667 13.1681 5.4C14.0215 4.93333 15.0081 4.7 16.1281 4.7C17.2481 4.7 18.2348 4.93333 19.0881 5.4C19.9415 5.86667 20.6081 6.51333 21.0881 7.34C21.5748 8.16 21.8181 9.11 21.8181 10.19C21.8181 11.2633 21.5748 12.2167 21.0881 13.05C20.6081 13.8833 19.9415 14.5367 19.0881 15.01C18.2348 15.4767 17.2481 15.71 16.1281 15.71ZM16.1281 13.56C16.7348 13.56 17.2648 13.42 17.7181 13.14C18.1715 12.86 18.5248 12.47 18.7781 11.97C19.0315 11.4633 19.1581 10.87 19.1581 10.19C19.1581 9.51 19.0315 8.92333 18.7781 8.43C18.5248 7.93 18.1715 7.54333 17.7181 7.27C17.2648 6.99667 16.7348 6.86 16.1281 6.86C15.5281 6.86 14.9981 6.99667 14.5381 7.27C14.0848 7.54333 13.7315 7.93 13.4781 8.43C13.2248 8.92333 13.0981 9.51 13.0981 10.19C13.0981 10.87 13.2248 11.4633 13.4781 11.97C13.7315 12.47 14.0848 12.86 14.5381 13.14C14.9981 13.42 15.5281 13.56 16.1281 13.56ZM31.1341 14.45C31.7607 14.51 32.3107 14.6267 32.7841 14.8C33.2574 14.9733 33.6274 15.23 33.8941 15.57C34.1607 15.9167 34.2941 16.3767 34.2941 16.95C34.2941 17.59 34.0774 18.1433 33.6441 18.61C33.2107 19.0767 32.5741 19.4367 31.7341 19.69C30.9007 19.9433 29.8741 20.07 28.6541 20.07C26.8807 20.07 25.5174 19.8133 24.5641 19.3C23.6107 18.7933 23.1341 18.1033 23.1341 17.23C23.1341 16.9833 23.1641 16.76 23.2241 16.56C23.2841 16.36 23.3574 16.1933 23.4441 16.06L25.8541 16.41C25.8141 16.4633 25.7741 16.5467 25.7341 16.66C25.6941 16.78 25.6741 16.9233 25.6741 17.09C25.6741 17.5033 25.9507 17.8 26.5041 17.98C27.0641 18.1667 27.8074 18.26 28.7341 18.26C29.4141 18.26 29.9807 18.2133 30.4341 18.12C30.8941 18.0267 31.2407 17.8933 31.4741 17.72C31.7141 17.5467 31.8341 17.3433 31.8341 17.11C31.8341 16.7633 31.6774 16.54 31.3641 16.44C31.0507 16.34 30.6774 16.2733 30.2441 16.24L26.2141 15.87C25.4941 15.7967 24.9007 15.5833 24.4341 15.23C23.9741 14.8767 23.7441 14.41 23.7441 13.83C23.7441 13.4767 23.8374 13.15 24.0241 12.85C24.2174 12.55 24.4374 12.3 24.6841 12.1C24.9307 11.8933 25.1407 11.7667 25.3141 11.72L26.8141 12.46C26.6741 12.48 26.5074 12.57 26.3141 12.73C26.1274 12.89 26.0341 13.08 26.0341 13.3C26.0341 13.5067 26.1274 13.68 26.3141 13.82C26.5007 13.9533 26.8607 14.0467 27.3941 14.1L31.1341 14.45ZM32.3241 4.88H34.6841L33.7241 9C33.5441 9.77333 33.2541 10.4667 32.8541 11.08C32.4541 11.6933 31.9207 12.1767 31.2541 12.53C30.5874 12.8833 29.7474 13.06 28.7341 13.06C27.6807 13.06 26.7707 12.89 26.0041 12.55C25.2441 12.2033 24.6574 11.72 24.2441 11.1C23.8307 10.4733 23.6241 9.75333 23.6241 8.94C23.6241 8.10667 23.8341 7.37333 24.2541 6.74C24.6807 6.1 25.2641 5.6 26.0041 5.24C26.7507 4.88 27.5941 4.7 28.5341 4.7C29.2941 4.7 29.9774 4.82667 30.5841 5.08C31.1907 5.32667 31.6741 5.65 32.0341 6.05C32.4007 6.45 32.5974 6.87667 32.6241 7.33L32.0341 7.44L32.3241 4.88ZM28.7241 11.03C29.2374 11.03 29.6807 10.9467 30.0541 10.78C30.4274 10.6133 30.7174 10.3733 30.9241 10.06C31.1307 9.74 31.2341 9.35333 31.2341 8.9C31.2341 8.45333 31.1307 8.07 30.9241 7.75C30.7174 7.43 30.4274 7.18667 30.0541 7.02C29.6807 6.84667 29.2407 6.76 28.7341 6.76C28.2407 6.76 27.8041 6.84667 27.4241 7.02C27.0441 7.19333 26.7441 7.44333 26.5241 7.77C26.3107 8.09 26.2041 8.47333 26.2041 8.92C26.2041 9.36667 26.3074 9.75 26.5141 10.07C26.7274 10.3833 27.0207 10.6233 27.3941 10.79C27.7741 10.95 28.2174 11.03 28.7241 11.03ZM41.2453 15.71C40.1253 15.71 39.1387 15.4767 38.2853 15.01C37.432 14.5367 36.762 13.8833 36.2753 13.05C35.7953 12.2167 35.5553 11.2633 35.5553 10.19C35.5553 9.11 35.7953 8.16 36.2753 7.34C36.762 6.51333 37.432 5.86667 38.2853 5.4C39.1387 4.93333 40.1253 4.7 41.2453 4.7C42.3653 4.7 43.352 4.93333 44.2053 5.4C45.0587 5.86667 45.7253 6.51333 46.2053 7.34C46.692 8.16 46.9353 9.11 46.9353 10.19C46.9353 11.2633 46.692 12.2167 46.2053 13.05C45.7253 13.8833 45.0587 14.5367 44.2053 15.01C43.352 15.4767 42.3653 15.71 41.2453 15.71ZM41.2453 13.56C41.852 13.56 42.382 13.42 42.8353 13.14C43.2887 12.86 43.642 12.47 43.8953 11.97C44.1487 11.4633 44.2753 10.87 44.2753 10.19C44.2753 9.51 44.1487 8.92333 43.8953 8.43C43.642 7.93 43.2887 7.54333 42.8353 7.27C42.382 6.99667 41.852 6.86 41.2453 6.86C40.6453 6.86 40.1153 6.99667 39.6553 7.27C39.202 7.54333 38.8487 7.93 38.5953 8.43C38.342 8.92333 38.2153 9.51 38.2153 10.19C38.2153 10.87 38.342 11.4633 38.5953 11.97C38.8487 12.47 39.202 12.86 39.6553 13.14C40.1153 13.42 40.6453 13.56 41.2453 13.56Z" fill="#fff"/>
<path d="M-0.724365 16.75H47.7853V17.25H-0.724365V16.75Z" fill="#2D2D2D"/>
<a href="https://www.animaapp.com/?utm_source=figma-samples&#38;utm_campaign=figma-portfolio&#38;utm_medium=figma-samples">
<rect fill="black" fill-opacity="0" y="4.75" width="48.5097" height="20.5"/>
</a>
</svg>
