<svg width="24" height="24" viewBox="0 0 24 24" fill="none" xmlns="http://www.w3.org/2000/svg">
<g clip-path="url(#clip0_904_929)">
<path d="M8.58815 7.0514L16.8065 11.6746C16.8654 11.7078 16.9143 11.7553 16.9482 11.8124C16.9821 11.8695 17 11.9342 17 12C17 12.0658 16.9821 12.1305 16.9482 12.1876C16.9143 12.2447 16.8654 12.2922 16.8065 12.3254L8.58815 16.9486C8.5286 16.9821 8.46093 16.9998 8.39199 17C8.32305 17.0002 8.25529 16.9827 8.19558 16.9495C8.13587 16.9163 8.08633 16.8684 8.05199 16.8108C8.01764 16.7531 7.99971 16.6878 8 16.6213V7.37721C7.99998 7.31085 8.01812 7.24567 8.05258 7.18824C8.08704 7.13081 8.1366 7.08316 8.19626 7.05011C8.25593 7.01706 8.32358 6.99978 8.39238 7C8.46119 7.00023 8.52872 7.01796 8.58815 7.0514Z" fill="#293FCC"/>
</g>
<circle cx="12" cy="12" r="11.5" stroke="#293FCC"/>
<defs>
<clipPath id="clip0_904_929">
<rect width="24" height="24" fill="white"/>
</clipPath>
</defs>
</svg>
